<svg  viewBox="0 0 24 24" fill="none" xmlns="http://www.w3.org/2000/svg"><g clip-path="url(#clip0_480_1377)"><g clip-path="url(#clip1_480_1377)"><mask id="mask0_480_1377" style="mask-type:alpha" maskUnits="userSpaceOnUse" x="0" y="0" width="512" height="512"><path d="M0 1.935C0 0.866 0.867 0 1.935 0h20.129C23.133 0 24 0.867 24 1.935v20.129c0 1.069 -0.867 1.935 -1.935 1.935H1.935c-1.069 0 -1.935 -0.867 -1.935 -1.935V1.935Z" fill="#D9D9D9"/></mask><g mask="url(#mask0_480_1377)"><path d="M12 12 0 23.999V0l12 12Z" fill="#60D5C4"/><path d="m12 12 12 12V0L12 12Z" fill="#60D5C4"/><path d="m12 12 12 12H0l12 -12Z" fill="#71E9D8"/><path d="M12 12 24 0H0l12 12Z" fill="#71E9D8"/><path d="M20.785 3.097H3.215a0.119 0.119 0 0 0 -0.119 0.119v17.569a0.119 0.119 0 0 0 0.119 0.119h17.569a0.119 0.119 0 0 0 0.119 -0.119V3.215a0.119 0.119 0 0 0 -0.119 -0.119Z" fill="#09B6A2"/><path d="M7.503 17.154c-1.133 0 -1.7 -0.556 -1.7 -1.667v-2.383c0 -0.416 -0.209 -0.624 -0.626 -0.624 -0.153 0 -0.282 -0.048 -0.386 -0.143 -0.097 -0.095 -0.146 -0.218 -0.146 -0.368 0 -0.157 0.049 -0.283 0.146 -0.378 0.104 -0.095 0.233 -0.143 0.386 -0.143 0.417 0 0.626 -0.208 0.626 -0.624v-2.383c0 -1.111 0.567 -1.667 1.7 -1.667 0.153 0 0.278 0.051 0.375 0.153 0.097 0.102 0.146 0.228 0.146 0.378 0 0.15 -0.049 0.273 -0.146 0.368 -0.097 0.095 -0.222 0.143 -0.375 0.143 -0.424 0 -0.636 0.208 -0.636 0.624v2.383c0 0.239 -0.028 0.453 -0.083 0.644 -0.056 0.191 -0.139 0.358 -0.25 0.501 0.222 0.28 0.334 0.658 0.334 1.135v2.383c0 0.416 0.212 0.624 0.636 0.624 0.153 0 0.278 0.048 0.375 0.143 0.097 0.095 0.146 0.222 0.146 0.378 0 0.15 -0.049 0.273 -0.146 0.368 -0.097 0.102 -0.222 0.153 -0.375 0.153Zm2.082 -2.229c-0.195 0 -0.365 -0.068 -0.511 -0.205 -0.139 -0.143 -0.209 -0.31 -0.209 -0.501 0 -0.198 0.07 -0.365 0.209 -0.501 0.146 -0.143 0.316 -0.215 0.511 -0.215 0.202 0 0.372 0.072 0.511 0.215 0.139 0.136 0.209 0.303 0.209 0.501 0 0.191 -0.07 0.358 -0.209 0.501 -0.139 0.136 -0.309 0.205 -0.511 0.205Zm2.485 0c-0.195 0 -0.365 -0.068 -0.511 -0.205 -0.139 -0.143 -0.209 -0.31 -0.209 -0.501 0 -0.198 0.07 -0.365 0.209 -0.501 0.146 -0.143 0.316 -0.215 0.511 -0.215 0.202 0 0.372 0.072 0.511 0.215 0.139 0.136 0.209 0.303 0.209 0.501 0 0.191 -0.07 0.358 -0.209 0.501 -0.139 0.136 -0.309 0.205 -0.511 0.205Zm2.485 0c-0.195 0 -0.365 -0.068 -0.511 -0.205 -0.139 -0.143 -0.209 -0.31 -0.209 -0.501 0 -0.198 0.07 -0.365 0.209 -0.501 0.146 -0.143 0.316 -0.215 0.511 -0.215 0.202 0 0.372 0.072 0.511 0.215 0.139 0.136 0.209 0.303 0.209 0.501 0 0.191 -0.07 0.358 -0.209 0.501 -0.139 0.136 -0.309 0.205 -0.511 0.205Zm2.089 2.229c-0.153 0 -0.278 -0.051 -0.375 -0.153 -0.097 -0.095 -0.146 -0.218 -0.146 -0.368 0 -0.157 0.049 -0.283 0.146 -0.378 0.097 -0.095 0.222 -0.143 0.375 -0.143 0.424 0 0.636 -0.208 0.636 -0.624v-2.383c0 -0.477 0.111 -0.856 0.334 -1.135 -0.111 -0.143 -0.195 -0.31 -0.25 -0.501 -0.056 -0.191 -0.083 -0.406 -0.083 -0.644v-2.383c0 -0.416 -0.212 -0.624 -0.636 -0.624 -0.153 0 -0.278 -0.048 -0.375 -0.143 -0.097 -0.095 -0.146 -0.218 -0.146 -0.368 0 -0.15 0.049 -0.276 0.146 -0.378 0.097 -0.102 0.222 -0.153 0.375 -0.153 1.133 0 1.7 0.556 1.7 1.667v2.383c0 0.416 0.209 0.624 0.626 0.624 0.153 0 0.278 0.048 0.375 0.143 0.104 0.095 0.156 0.222 0.156 0.378 0 0.15 -0.052 0.273 -0.156 0.368 -0.097 0.095 -0.222 0.143 -0.375 0.143 -0.417 0 -0.626 0.208 -0.626 0.624v2.383c0 1.111 -0.567 1.667 -1.7 1.667Z" fill="white"/></g></g></g><defs><clipPath id="clip0_480_1377"><path width="512" height="512" fill="white" d="M0 0H24V24H0V0z"/></clipPath><clipPath id="clip1_480_1377"><path width="512" height="512" fill="white" d="M0 0H24V24H0V0z"/></clipPath></defs></svg>